<svg version="1.1" width="69" height="60" viewBox="-1 -1 69 60" xmlns="http://www.w3.org/2000/svg" xmlns:xlink="http://www.w3.org/1999/xlink">
  <!-- Exported by Scratch - http://scratch.mit.edu/ -->
  <path id="ID0.7974531124345958" fill="#FFD41B" stroke="none" stroke-linecap="round" d="M 244 141 C 253.540 141.011 265.333 142.135 272.500 149.050 C 278.370 155.171 278.058 165.876 277.500 174.500 C 276.879 184.125 276.561 195.865 270 202.850 C 263.484 208.941 252.820 208.296 244 208 C 234.804 207.692 223.824 207.630 217.500 201.150 C 210.864 194.670 210.632 183.633 210.500 174.500 C 210.374 165.794 210.565 155.315 216.500 149.050 C 223.416 142.464 234.466 140.987 244 141 Z " transform="matrix(1, 0, 0, 0.8731343150138855, -210, -122.7)"/>
  <path id="ID0.2488297107629478" fill="#FFF18F" stroke="none" d="M 254.500 169.500 C 260.983 169.500 266.858 171.181 271.113 173.896 C 275.367 176.612 278 180.362 278 184.500 C 278 188.638 275.367 192.388 271.113 195.104 C 266.858 197.819 260.983 199.500 254.500 199.500 C 248.017 199.500 242.142 197.819 237.887 195.104 C 233.633 192.388 231 188.638 231 184.500 C 231 180.362 233.633 176.612 237.887 173.896 C 242.142 171.181 248.017 169.500 254.500 169.500 Z " transform="matrix(1.2680851221084595, 0, 0, 1.0499999523162842, -287.85, -172.45)"/>
  <path id="ID0.1568460832349956" fill="#000000" stroke="none" d="M 230.500 171.500 C 232.707 171.500 234.707 172.368 236.155 173.771 C 237.604 175.174 238.500 177.112 238.500 179.250 C 238.500 181.388 237.604 183.326 236.155 184.729 C 234.707 186.132 232.707 187 230.500 187 C 228.293 187 226.293 186.132 224.845 184.729 C 223.396 183.326 222.500 181.388 222.500 179.250 C 222.500 177.112 223.396 175.174 224.845 173.771 C 226.293 172.368 228.293 171.500 230.500 171.500 Z " transform="matrix(1, 0, 0, 1, -206, -156.45)"/>
  <path id="ID0.1568460832349956" fill="#000000" stroke="none" d="M 230.500 171.500 C 232.707 171.500 234.707 172.368 236.155 173.771 C 237.604 175.174 238.500 177.112 238.500 179.250 C 238.500 181.388 237.604 183.326 236.155 184.729 C 234.707 186.132 232.707 187 230.500 187 C 228.293 187 226.293 186.132 224.845 184.729 C 223.396 183.326 222.500 181.388 222.500 179.250 C 222.500 177.112 223.396 175.174 224.845 173.771 C 226.293 172.368 228.293 171.500 230.500 171.500 Z " transform="matrix(1, 0, 0, 1, -187.5, -157.2)"/>
  <path id="ID0.8138620797544718" fill="#000000" stroke="none" stroke-linecap="round" d="M 265 194.500 C 267.065 194 268.936 193.012 270 191.500 C 270.672 189.732 268.178 186.342 269.500 186 C 270.998 185.749 273.638 188.703 274.500 190.500 C 275.334 192.297 274.920 194.683 274.190 196.552 C 273.376 198.594 272.607 200.654 271 202 C 269.002 203.648 266.318 204.715 263.500 205 C 260.807 205.403 257.720 205.237 255 204 C 252.972 203.076 250.378 201.197 250.500 199 C 250.728 196.790 253.291 194.541 255.500 193.500 C 258.613 192.879 261.913 195.175 265 194.500 Z " transform="matrix(0.9545644521713257, 0.2980045676231384, -0.2980045676231384, 0.9545644521713257, -145.85, -223.85)"/>
  <path id="ID0.8138620797544718" fill="#000000" stroke="none" stroke-linecap="round" d="M 265 194.500 C 267.065 194 268.936 193.012 270 191.500 C 270.672 189.732 268.178 186.342 269.500 186 C 270.998 185.749 273.638 188.703 274.500 190.500 C 275.334 192.297 274.920 194.683 274.190 196.552 C 273.376 198.594 272.607 200.654 271 202 C 269.002 203.648 266.318 204.715 263.500 205 C 260.807 205.403 257.720 205.237 255 204 C 252.972 203.076 250.378 201.197 250.500 199 C 250.728 196.790 253.291 194.541 255.500 193.500 C 258.613 192.879 261.913 195.175 265 194.500 Z " transform="matrix(-0.9592347145080566, 0.2826107144355774, 0.2826107144355774, 0.9592347145080566, 218.75, -220.95)"/>
  <path id="ID0.0414857342839241" fill="#FFFFFF" stroke="none" d="M 243.500 175 C 245.017 175 246.392 175.560 247.388 176.465 C 248.384 177.371 249 178.621 249 180 C 249 181.379 248.384 182.629 247.388 183.535 C 246.392 184.440 245.017 185 243.500 185 C 241.983 185 240.608 184.440 239.612 183.535 C 238.616 182.629 238 181.379 238 180 C 238 178.621 238.616 177.371 239.612 176.465 C 240.608 175.560 241.983 175 243.500 175 Z " transform="matrix(0.9545454382896423, 0, 0, 0.9545454382896423, -205.75, -149.35)"/>
  <path id="ID0.0414857342839241" fill="#FFFFFF" stroke="none" d="M 243.500 175 C 245.017 175 246.392 175.560 247.388 176.465 C 248.384 177.371 249 178.621 249 180 C 249 181.379 248.384 182.629 247.388 183.535 C 246.392 184.440 245.017 185 243.500 185 C 241.983 185 240.608 184.440 239.612 183.535 C 238.616 182.629 238 181.379 238 180 C 238 178.621 238.616 177.371 239.612 176.465 C 240.608 175.560 241.983 175 243.500 175 Z " transform="matrix(0.8636363744735718, 0, 0, 0.8636363744735718, -166.05, -134.8)"/>
  <path id="ID0.212228340562433" fill="#FFFFFF" stroke="none" d="M 235.750 176 C 236.095 176 236.407 176.224 236.634 176.586 C 236.860 176.948 237 177.448 237 178 C 237 178.552 236.860 179.052 236.634 179.414 C 236.407 179.776 236.095 180 235.750 180 C 235.405 180 235.093 179.776 234.866 179.414 C 234.640 179.052 234.500 178.552 234.500 178 C 234.500 177.448 234.640 176.948 234.866 176.586 C 235.093 176.224 235.405 176 235.750 176 Z " transform="matrix(1.600000023841858, 0, 0, 1, -358.2, -156.95)"/>
  <path id="ID0.22875267500057817" fill="#FFFFFF" stroke="none" d="M 258 172.500 C 258.414 172.500 258.789 172.668 259.060 172.940 C 259.332 173.211 259.500 173.586 259.500 174 C 259.500 174.414 259.332 174.789 259.060 175.060 C 258.789 175.332 258.414 175.500 258 175.500 C 257.586 175.500 257.211 175.332 256.940 175.060 C 256.668 174.789 256.500 174.414 256.500 174 C 256.500 173.586 256.668 173.211 256.940 172.940 C 257.211 172.668 257.586 172.500 258 172.500 Z " transform="matrix(1, 0, 0, 1, -217, -156.95)"/>
</svg>